<svg xmlns="http://www.w3.org/2000/svg" viewBox="0 0 2867.27 2000"><defs><style>.a2b97944-57d5-4d82-ba9f-3c3323a88e64{fill:#fff;}</style></defs><g id="b74dd545-bb8e-4def-952d-2c2b74f65816" data-name="Layer 2"><g id="b154f222-bd6b-428a-9fd5-89fda08b5635" data-name="Layer 1 copy 5"><path class="a2b97944-57d5-4d82-ba9f-3c3323a88e64" d="M1343.46,943.22l-28.9,76.16h58.14Zm0,0-28.9,76.16h58.14ZM1867.27,0H1000C585.78,0,230.39,251.84,78.58,610.76A996.88,996.88,0,0,0,0,1000c0,552.29,447.71,1000,1000,1000h867.28c552.29,0,1000-447.71,1000-1000S2419.56,0,1867.27,0ZM1172.82,1037.4a95.74,95.74,0,0,1,6.63,12.92l25.84,59.16h-57.12l-24.48-55.76q-3.06-7.47-7.82-10.54t-13.6-3.06h-25.16v69.36h-54.74v-219h109.48q37.74,0,56.61,19.89t18.87,55.25q0,22.11-11,38.76t-30.77,24.82A38.43,38.43,0,0,1,1172.82,1037.4Zm227.08,72.08-19.72-49.64h-73.1l-19.38,49.64h-57.12l83.64-219h59.16l83.64,219Zm243.48-176.8H1539v45.9h91.8v42.84H1539v88.06h-54.74v-219h159.12Zm201.52,0h-64.26v176.8H1725.9V932.68h-64.26V890.52H1844.9Zm-530.34,86.7h58.14l-29.24-76.16ZM1120,932.68h-42.84V998h40.46q16.32,0,25.16-8.16t8.84-24.14Q1151.57,932.69,1120,932.68Z"/></g></g></svg>