<svg xmlns="http://www.w3.org/2000/svg" viewBox="0 0 76.46 52.52"><defs><style>.bba26242-9acf-4777-a56b-49cca21a0469{fill:#fff;}</style></defs><g id="bd141e64-1d41-403e-8c6a-af6a506aae00" data-name="Layer 2"><g id="b1e86816-9e00-42b6-a012-720213090897" data-name="Layer 2"><path class="bba26242-9acf-4777-a56b-49cca21a0469" d="M75.85,34.08a10.71,10.71,0,0,0-2.94-4.38L55.64,14.6A47.36,47.36,0,0,0,42.13,6.3L29.89,1.36A22.17,22.17,0,0,0,8.79,4.55l-6,4.6A9.48,9.48,0,0,0,1.17,20.41l9,16.38A30.22,30.22,0,0,0,41,52.21l26.21-3.77A10.86,10.86,0,0,0,75.85,34.08Zm-9,5.18L40.67,43a28.5,28.5,0,0,1-4,.29A28.22,28.22,0,0,1,11.89,28.63l-9-16.36,0,0a7.58,7.58,0,0,1,1.17-1.59L10,6.14A20.31,20.31,0,0,1,22.25,2a20,20,0,0,1,6.92,1.23L41.38,8.16a45.15,45.15,0,0,1,12.94,8L71.57,31.18a8.82,8.82,0,0,1,2.13,2.91A8.67,8.67,0,0,1,66.88,39.26Z"/><path class="bba26242-9acf-4777-a56b-49cca21a0469" d="M56.68,24.13a2.8,2.8,0,0,0-2.36-1l-2.24.16-7,.49-5.78-6.4A7.09,7.09,0,0,0,39,11.24a2,2,0,0,0-1.85-1.07l-21.72.74a2.74,2.74,0,0,0-2,.94,2.77,2.77,0,0,0-.11,3.56l2.84,3.64,5,6.41,3.21,4.11c.1.13.2.25.31.37a3.58,3.58,0,0,0,.26.29,8.72,8.72,0,0,0,1.12,1,3.28,3.28,0,0,0,.38.27l.39.25.41.23A8.91,8.91,0,0,0,32,33l14.25-1,11.55-.84a4.79,4.79,0,0,0,.76-1.63h0C59,27.71,58.17,25.92,56.68,24.13Zm-20-5.08,4.51,5L25.49,25.16,20,19.05Z"/><path class="bba26242-9acf-4777-a56b-49cca21a0469" d="M16.11,26.79h0a1,1,0,0,1-1-1c0-2.43-1.15-4.18-3.58-5.37a1,1,0,1,1,.88-1.79c3.14,1.53,4.72,3.94,4.7,7.17A1,1,0,0,1,16.11,26.79Z"/><path class="bba26242-9acf-4777-a56b-49cca21a0469" d="M51.64,21.05a1,1,0,0,1-1-.8,4.69,4.69,0,0,0-3.89-3.76A1,1,0,0,1,46,15.28a1,1,0,0,1,1.21-.73,6.61,6.61,0,0,1,5.37,5.29A1,1,0,0,1,51.85,21Z"/></g></g></svg>